
<svg width="512" height="512" viewBox="0 0 512 512" xmlns="http://www.w3.org/2000/svg">
  <rect width="512" height="512" rx="112" fill="#0284c7"/>
  <path d="M256 256 L426 256 M341 256 L363.1 217.7216771527278 M341 256 L363.1 294.2783228472722 M381.8 256 L403.90000000000003 217.7216771527278 M381.8 256 L403.90000000000003 294.2783228472722 M256 256 L341 403.22431864335454 M298.5 329.61215932167727 L342.7 329.61215932167727 M298.5 329.61215932167727 L276.40000000000003 367.89048216894946 M318.90000000000003 364.94599579608234 L363.1 364.94599579608234 M318.90000000000003 364.94599579608234 L296.80000000000007 403.22431864335454 M256 256 L171.00000000000006 403.2243186433546 M213.50000000000003 329.61215932167727 L235.60000000000002 367.89048216894946 M213.50000000000003 329.61215932167727 L169.3 329.61215932167727 M193.10000000000002 364.9459957960824 L215.20000000000002 403.2243186433546 M193.10000000000002 364.9459957960824 L148.90000000000003 364.9459957960824 M256 256 L86 256 M171 256 L148.9 294.2783228472722 M171 256 L148.89999999999998 217.7216771527278 M130.2 256 L108.1 294.2783228472722 M130.2 256 L108.09999999999997 217.7216771527278 M256 256 L170.99999999999994 108.77568135664546 M213.49999999999997 182.38784067832273 L169.29999999999995 182.38784067832273 M213.49999999999997 182.38784067832273 L235.59999999999997 144.10951783105054 M193.09999999999997 147.05400420391766 L148.89999999999998 147.05400420391766 M193.09999999999997 147.05400420391766 L215.19999999999996 108.77568135664546 M256 256 L341 108.77568135664544 M298.5 182.38784067832273 L276.4 144.10951783105054 M298.5 182.38784067832273 L342.7 182.38784067832273 M318.90000000000003 147.05400420391763 L296.8 108.77568135664544 M318.90000000000003 147.05400420391763 L363.1 147.05400420391763" fill="none" stroke="#ffffff" stroke-width="22" stroke-linecap="round"/>
</svg>